<?xml version="1.0" encoding="utf-8"?>
<svg viewBox="670.104 190.722 671.611 406.775" xmlns="http://www.w3.org/2000/svg">
  <defs>
    <clipPath id="clip-1">
      <path clip-rule="nonzero" d="M 756 477 L 814 477 L 814 525 L 756 525 Z M 756 477 "/>
    </clipPath>
    <clipPath id="clip-2">
      <path clip-rule="nonzero" d="M 789.839844 477.839844 L 779.472656 477.839844 C 766.613281 477.839844 756.191406 488.261719 756.191406 501.121094 C 756.191406 513.980469 766.613281 524.398438 779.472656 524.398438 L 789.839844 524.398438 C 802.699219 524.398438 813.121094 513.980469 813.121094 501.121094 C 813.121094 488.261719 802.699219 477.839844 789.839844 477.839844 Z M 789.839844 477.839844 "/>
    </clipPath>
    <clipPath id="clip-3">
      <path clip-rule="nonzero" d="M 789.839844 477.839844 L 779.472656 477.839844 C 766.613281 477.839844 756.191406 488.261719 756.191406 501.121094 C 756.191406 513.980469 766.613281 524.398438 779.472656 524.398438 L 789.839844 524.398438 C 802.699219 524.398438 813.121094 513.980469 813.121094 501.121094 C 813.121094 488.261719 802.699219 477.839844 789.839844 477.839844 "/>
    </clipPath>
    <clipPath id="clip-4">
      <path clip-rule="nonzero" d="M 856 196 L 1328 196 L 1328 503 L 856 503 Z M 856 196 "/>
    </clipPath>
    <clipPath id="clip-5">
      <path clip-rule="nonzero" d="M 1298.890625 239.871094 C 1269.039062 205.140625 1221.078125 191.828125 1168.078125 198.46875 L 879.539062 198.46875 C 866.679688 198.46875 856.257812 208.890625 856.257812 221.75 C 856.257812 234.609375 866.679688 245.03125 879.539062 245.03125 L 1186.480469 245.03125 C 1206.410156 245.03125 1221.921875 247.21875 1233.019531 251.609375 C 1244.109375 255.988281 1253.070312 264.03125 1259.898438 275.710938 C 1266.71875 287.398438 1270.128906 301.570312 1270.128906 318.210938 C 1270.128906 341.96875 1263.480469 361.558594 1250.199219 377 C 1236.898438 392.429688 1216.789062 402 1189.859375 405.679688 C 1196.738281 412.289062 1203.210938 420.988281 1209.261719 431.789062 C 1218.960938 449.480469 1229.558594 473.101562 1241.058594 502.621094 C 1327.621094 418.289062 1354.019531 304.03125 1298.890625 239.871094 Z M 1298.890625 239.871094 "/>
    </clipPath>
    <clipPath id="clip-6">
      <path clip-rule="nonzero" d="M 1298.890625 239.871094 C 1269.039062 205.140625 1221.078125 191.828125 1168.078125 198.46875 L 879.539062 198.46875 C 866.679688 198.46875 856.257812 208.890625 856.257812 221.75 C 856.257812 234.609375 866.679688 245.03125 879.539062 245.03125 L 1186.480469 245.03125 C 1206.410156 245.03125 1221.921875 247.21875 1233.019531 251.609375 C 1244.109375 255.988281 1253.070312 264.03125 1259.898438 275.710938 C 1266.71875 287.398438 1270.128906 301.570312 1270.128906 318.210938 C 1270.128906 341.96875 1263.480469 361.558594 1250.199219 377 C 1236.898438 392.429688 1216.789062 402 1189.859375 405.679688 C 1196.738281 412.289062 1203.210938 420.988281 1209.261719 431.789062 C 1218.960938 449.480469 1229.558594 473.101562 1241.058594 502.621094 C 1327.621094 418.289062 1354.019531 304.03125 1298.890625 239.871094 "/>
    </clipPath>
    <clipPath id="clip-7">
      <path clip-rule="nonzero" d="M 737 291 L 1217 291 L 1217 592 L 737 592 Z M 737 291 "/>
    </clipPath>
    <clipPath id="clip-8">
      <path clip-rule="nonzero" d="M 1164.410156 450.648438 C 1157.050781 432.609375 1149.21875 420.480469 1140.910156 414.261719 C 1135.808594 410.570312 1126.910156 408.730469 1114.210938 408.730469 L 1092.320312 408.730469 L 1080.019531 471.648438 C 1074.039062 502.289062 1047.191406 524.398438 1015.960938 524.398438 L 1061.5 291.589844 L 760.394531 291.589844 C 747.535156 291.589844 737.113281 302.019531 737.113281 314.871094 C 737.113281 327.730469 747.535156 338.160156 760.394531 338.160156 L 1007.25 338.160156 C 1020.101562 338.160156 1030.53125 348.578125 1030.53125 361.441406 C 1030.53125 374.289062 1020.101562 384.71875 1007.25 384.71875 L 811.3125 384.71875 C 798.453125 384.71875 788.03125 395.140625 788.03125 408 C 788.03125 420.859375 798.453125 431.28125 811.3125 431.28125 L 964.113281 431.28125 C 976.96875 431.28125 987.394531 441.699219 987.394531 454.558594 C 987.394531 467.421875 976.96875 477.839844 964.113281 477.839844 L 846.230469 477.839844 C 833.375 477.839844 822.949219 488.261719 822.949219 501.121094 C 822.949219 513.980469 833.375 524.398438 846.230469 524.398438 L 923.550781 524.398438 C 927.789062 533.089844 933.09375 541.21875 939.503906 548.679688 C 996.269531 614.738281 1118.558594 603.359375 1216.488281 524.398438 C 1201.949219 524.398438 1188.96875 515.28125 1184.070312 501.601562 C 1179.140625 487.851562 1172.589844 470.871094 1164.410156 450.648438 Z M 1164.410156 450.648438 "/>
    </clipPath>
    <clipPath id="clip-9">
      <path clip-rule="nonzero" d="M 1164.410156 450.648438 C 1157.050781 432.609375 1149.21875 420.480469 1140.910156 414.261719 C 1135.808594 410.570312 1126.910156 408.730469 1114.210938 408.730469 L 1092.320312 408.730469 L 1080.019531 471.648438 C 1074.039062 502.289062 1047.191406 524.398438 1015.960938 524.398438 L 1061.5 291.589844 L 760.394531 291.589844 C 747.535156 291.589844 737.113281 302.019531 737.113281 314.871094 C 737.113281 327.730469 747.535156 338.160156 760.394531 338.160156 L 1007.25 338.160156 C 1020.101562 338.160156 1030.53125 348.578125 1030.53125 361.441406 C 1030.53125 374.289062 1020.101562 384.71875 1007.25 384.71875 L 811.3125 384.71875 C 798.453125 384.71875 788.03125 395.140625 788.03125 408 C 788.03125 420.859375 798.453125 431.28125 811.3125 431.28125 L 964.113281 431.28125 C 976.96875 431.28125 987.394531 441.699219 987.394531 454.558594 C 987.394531 467.421875 976.96875 477.839844 964.113281 477.839844 L 846.230469 477.839844 C 833.375 477.839844 822.949219 488.261719 822.949219 501.121094 C 822.949219 513.980469 833.375 524.398438 846.230469 524.398438 L 923.550781 524.398438 C 927.789062 533.089844 933.09375 541.21875 939.503906 548.679688 C 996.269531 614.738281 1118.558594 603.359375 1216.488281 524.398438 C 1201.949219 524.398438 1188.96875 515.28125 1184.070312 501.601562 C 1179.140625 487.851562 1172.589844 470.871094 1164.410156 450.648438 "/>
    </clipPath>
    <clipPath id="clip-10">
      <path clip-rule="nonzero" d="M 1100 291 L 1217 291 L 1217 367 L 1100 367 Z M 1100 291 "/>
    </clipPath>
    <clipPath id="clip-11">
      <path clip-rule="nonzero" d="M 1186.390625 361.28125 C 1195.820312 357.589844 1203.210938 351.808594 1208.550781 343.941406 C 1213.890625 336.058594 1216.558594 327.800781 1216.558594 319.160156 C 1216.558594 309 1212.699219 301.378906 1204.988281 296.289062 C 1200.238281 293.238281 1189.96875 291.71875 1174.191406 291.71875 L 1115.101562 291.71875 L 1100.511719 366.800781 L 1128.988281 366.800781 C 1157.820312 366.800781 1176.949219 364.960938 1186.390625 361.28125 Z M 1186.390625 361.28125 "/>
    </clipPath>
    <clipPath id="clip-12">
      <path clip-rule="nonzero" d="M 1186.390625 361.28125 C 1195.820312 357.589844 1203.210938 351.808594 1208.550781 343.941406 C 1213.890625 336.058594 1216.558594 327.800781 1216.558594 319.160156 C 1216.558594 309 1212.699219 301.378906 1204.988281 296.289062 C 1200.238281 293.238281 1189.96875 291.71875 1174.191406 291.71875 L 1115.101562 291.71875 L 1100.511719 366.800781 L 1128.988281 366.800781 C 1157.820312 366.800781 1176.949219 364.960938 1186.390625 361.28125 "/>
    </clipPath>
    <clipPath id="clip-13">
      <path clip-rule="nonzero" d="M 720 387 L 778 387 L 778 435 L 720 435 Z M 720 387 "/>
    </clipPath>
    <clipPath id="clip-14">
      <path clip-rule="nonzero" d="M 777.46875 410.738281 C 777.46875 397.878906 767.042969 387.460938 754.1875 387.460938 L 743.820312 387.460938 C 730.960938 387.460938 720.539062 397.878906 720.539062 410.738281 C 720.539062 423.601562 730.960938 434.019531 743.820312 434.019531 L 754.1875 434.019531 C 767.042969 434.019531 777.46875 423.601562 777.46875 410.738281 Z M 777.46875 410.738281 "/>
    </clipPath>
    <clipPath id="clip-15">
      <path clip-rule="nonzero" d="M 777.46875 410.738281 C 777.46875 397.878906 767.042969 387.460938 754.1875 387.460938 L 743.820312 387.460938 C 730.960938 387.460938 720.539062 397.878906 720.539062 410.738281 C 720.539062 423.601562 730.960938 434.019531 743.820312 434.019531 L 754.1875 434.019531 C 767.042969 434.019531 777.46875 423.601562 777.46875 410.738281 "/>
    </clipPath>
    <clipPath id="clip-16">
      <path clip-rule="nonzero" d="M 672 291 L 730 291 L 730 339 L 672 339 Z M 672 291 "/>
    </clipPath>
    <clipPath id="clip-17">
      <path clip-rule="nonzero" d="M 729.195312 314.871094 C 729.195312 302.019531 718.773438 291.589844 705.914062 291.589844 L 695.546875 291.589844 C 682.691406 291.589844 672.265625 302.019531 672.265625 314.871094 C 672.265625 327.730469 682.691406 338.160156 695.546875 338.160156 L 705.914062 338.160156 C 718.773438 338.160156 729.195312 327.730469 729.195312 314.871094 Z M 729.195312 314.871094 "/>
    </clipPath>
    <clipPath id="clip-18">
      <path clip-rule="nonzero" d="M 729.195312 314.871094 C 729.195312 302.019531 718.773438 291.589844 705.914062 291.589844 L 695.546875 291.589844 C 682.691406 291.589844 672.265625 302.019531 672.265625 314.871094 C 672.265625 327.730469 682.691406 338.160156 695.546875 338.160156 L 705.914062 338.160156 C 718.773438 338.160156 729.195312 327.730469 729.195312 314.871094 "/>
    </clipPath>
    <clipPath id="clip-19">
      <path clip-rule="nonzero" d="M 784 198 L 842 198 L 842 246 L 784 246 Z M 784 198 "/>
    </clipPath>
    <clipPath id="clip-20">
      <path clip-rule="nonzero" d="M 807.9375 245.03125 L 818.304688 245.03125 C 831.160156 245.03125 841.585938 234.609375 841.585938 221.75 C 841.585938 208.890625 831.160156 198.46875 818.304688 198.46875 L 807.9375 198.46875 C 795.078125 198.46875 784.65625 208.890625 784.65625 221.75 C 784.65625 234.609375 795.078125 245.03125 807.9375 245.03125 Z M 807.9375 245.03125 "/>
    </clipPath>
    <clipPath id="clip-21">
      <path clip-rule="nonzero" d="M 807.9375 245.03125 L 818.304688 245.03125 C 831.160156 245.03125 841.585938 234.609375 841.585938 221.75 C 841.585938 208.890625 831.160156 198.46875 818.304688 198.46875 L 807.9375 198.46875 C 795.078125 198.46875 784.65625 208.890625 784.65625 221.75 C 784.65625 234.609375 795.078125 245.03125 807.9375 245.03125 "/>
    </clipPath>
  </defs>
  <g clip-path="url(#clip-1)">
    <g clip-path="url(#clip-2)">
      <g clip-path="url(#clip-3)">
        <path fill-rule="nonzero" d="M 756.191406 524.398438 L 813.121094 524.398438 L 813.121094 477.839844 L 756.191406 477.839844 Z M 756.191406 524.398438 " />
      </g>
    </g>
  </g>
  <g clip-path="url(#clip-4)">
    <g clip-path="url(#clip-5)">
      <g clip-path="url(#clip-6)">
        <path fill-rule="nonzero" d="M 856.257812 502.621094 L 1354.019531 502.621094 L 1354.019531 191.828125 L 856.257812 191.828125 Z M 856.257812 502.621094 " />
      </g>
    </g>
  </g>
  <g clip-path="url(#clip-7)">
    <g clip-path="url(#clip-8)">
      <g clip-path="url(#clip-9)">
        <path fill-rule="nonzero" d="M 737.113281 614.738281 L 1216.488281 614.738281 L 1216.488281 291.589844 L 737.113281 291.589844 Z M 737.113281 614.738281 " />
      </g>
    </g>
  </g>
  <g clip-path="url(#clip-10)">
    <g clip-path="url(#clip-11)">
      <g clip-path="url(#clip-12)">
        <path fill-rule="nonzero" d="M 1100.511719 366.800781 L 1216.558594 366.800781 L 1216.558594 291.71875 L 1100.511719 291.71875 Z M 1100.511719 366.800781 " />
      </g>
    </g>
  </g>
  <g clip-path="url(#clip-13)">
    <g clip-path="url(#clip-14)">
      <g clip-path="url(#clip-15)">
        <path fill-rule="nonzero" d="M 720.539062 434.019531 L 777.46875 434.019531 L 777.46875 387.460938 L 720.539062 387.460938 Z M 720.539062 434.019531 " />
      </g>
    </g>
  </g>
  <g clip-path="url(#clip-16)">
    <g clip-path="url(#clip-17)">
      <g clip-path="url(#clip-18)">
        <path fill-rule="nonzero" d="M 672.265625 338.160156 L 729.195312 338.160156 L 729.195312 291.589844 L 672.265625 291.589844 Z M 672.265625 338.160156 " />
      </g>
    </g>
  </g>
  <g clip-path="url(#clip-19)">
    <g clip-path="url(#clip-20)">
      <g clip-path="url(#clip-21)">
        <path fill-rule="nonzero" d="M 784.65625 245.03125 L 841.585938 245.03125 L 841.585938 198.46875 L 784.65625 198.46875 Z M 784.65625 245.03125 " />
      </g>
    </g>
  </g>
</svg>
